<svg xmlns="http://www.w3.org/2000/svg" viewBox="0 0 284.844 284.844"><path d="M199.174 284.844c-7.725 0-14.987-3.008-20.45-8.471L65.232 162.882c-5.476-5.476-8.483-12.738-8.483-20.463s3.008-14.987 8.471-20.45L178.724 8.471C184.187 3.008 191.443 0 199.174 0s14.987 3.008 20.45 8.471c5.469 5.463 8.471 12.725 8.471 20.457s-3.014 14.994-8.471 20.45l-93.054 93.048 93.054 93.048c5.463 5.463 8.471 12.719 8.471 20.45s-3.014 14.987-8.471 20.45c-5.463 5.462-12.731 8.47-20.45 8.47zM74.121 153.588l.199.193 113.498 113.498c6.073 6.073 16.646 6.073 22.719 0a15.95 15.95 0 004.704-11.363c0-4.293-1.671-8.323-4.704-11.363L108.395 142.425 210.537 40.29c3.04-3.033 4.704-7.07 4.704-11.363s-1.671-8.329-4.704-11.369c-6.073-6.067-16.645-6.067-22.719 0L74.313 131.056a15.962 15.962 0 00-4.704 11.356 15.92 15.92 0 004.512 11.176z" fill="#fff"/></svg>