<svg xmlns="http://www.w3.org/2000/svg" viewBox="0 0 284.837 284.837"><path d="M85.666 284.837c-7.725 0-14.987-3.008-20.45-8.471-5.463-5.463-8.471-12.719-8.471-20.45s3.014-14.987 8.471-20.45l93.054-93.054-93.054-93.041c-5.463-5.456-8.471-12.719-8.471-20.45s3.008-14.987 8.471-20.457C70.679 3.001 77.935 0 85.666 0s14.987 3.008 20.45 8.464L219.62 121.962c5.469 5.463 8.471 12.719 8.471 20.45s-3.008 14.987-8.471 20.45L106.117 276.36c-5.463 5.47-12.725 8.477-20.451 8.477zm0-271.977a15.997 15.997 0 00-11.363 4.698c-3.04 3.04-4.704 7.076-4.704 11.369s1.671 8.329 4.704 11.363l102.142 102.129L74.304 244.554a15.95 15.95 0 00-4.704 11.363c0 4.293 1.671 8.323 4.704 11.363 6.073 6.073 16.646 6.073 22.719 0L210.81 153.499a15.99 15.99 0 004.422-11.08 15.95 15.95 0 00-4.704-11.356L97.023 17.558a15.947 15.947 0 00-11.357-4.698z" fill="#fff"/></svg>